# MagicaVoxel @ ephtracy

# material
mtllib Boom.mtl
usemtl palette

# normals
vn -1 0 0
vn 1 0 0
vn 0 0 1
vn 0 0 -1
vn 0 -1 0
vn 0 1 0

# texcoords
vt 0.927734 0.5
vt 0.962891 0.5
vt 0.986328 0.5
vt 0.994141 0.5

# verts
v -10 7 -3.5
v -10 7 -4.5
v -10 15 -3.5
v -10 15 -4.5
v -9 5 -3.5
v -9 5 -4.5
v -9 7 -3.5
v -9 7 -4.5
v -9 15 -3.5
v -9 15 -4.5
v -9 16 -3.5
v -9 16 -4.5
v -8 4 -3.5
v -8 4 -4.5
v -8 5 -3.5
v -8 5 -4.5
v -7 0 2.5
v -7 0 -4.5
v -7 1 2.5
v -7 1 -4.5
v -6 0 3.5
v -6 0 2.5
v -6 1 3.5
v -6 1 2.5
v -6 1 -3.5
v -6 1 -4.5
v -6 2 -3.5
v -6 2 -4.5
v -6 10 -3.5
v -6 10 -4.5
v -6 11 -3.5
v -6 11 -4.5
v -5 0 4.5
v -5 0 3.5
v -5 1 4.5
v -5 1 3.5
v -5 1 2.5
v -5 1 -3.5
v -5 2 2.5
v -5 2 -3.5
v -5 2 -4.5
v -5 4 -3.5
v -5 4 -4.5
v -5 11 -3.5
v -5 11 -4.5
v -5 12 -3.5
v -5 12 -4.5
v -4 12 -3.5
v -4 12 -4.5
v -4 13 -3.5
v -4 13 -4.5
v -3 13 -3.5
v -3 13 -4.5
v -3 14 -3.5
v -3 14 -4.5
v -2 14 -3.5
v -2 14 -4.5
v -2 15 -3.5
v -2 15 -4.5
v -1 15 -3.5
v -1 15 -4.5
v -1 16 -3.5
v -1 16 -4.5
v 1 0 2.5
v 1 0 -4.5
v 1 1 2.5
v 1 1 -4.5
v 1 8 -3.5
v 1 8 -4.5
v 1 9 -3.5
v 1 9 -4.5
v 2 0 3.5
v 2 0 2.5
v 2 1 3.5
v 2 1 2.5
v 2 1 -3.5
v 2 1 -4.5
v 2 8 -3.5
v 2 8 -4.5
v 3 0 4.5
v 3 0 3.5
v 3 1 4.5
v 3 1 3.5
v 3 1 2.5
v 3 1 -3.5
v 3 2 2.5
v 3 2 -3.5
v 6 13 -3.5
v 6 13 -4.5
v 6 15 -3.5
v 6 15 -4.5
v 7 10 -3.5
v 7 10 -4.5
v 7 13 -3.5
v 7 13 -4.5
v 7 15 -3.5
v 7 15 -4.5
v 7 16 -3.5
v 7 16 -4.5
v -7 10 -3.5
v -7 10 -4.5
v -7 13 -3.5
v -7 13 -4.5
v -7 15 -3.5
v -7 15 -4.5
v -7 16 -3.5
v -7 16 -4.5
v -6 13 -3.5
v -6 13 -4.5
v -6 15 -3.5
v -6 15 -4.5
v -3 0 4.5
v -3 0 3.5
v -3 1 4.5
v -3 1 3.5
v -3 1 2.5
v -3 1 -3.5
v -3 2 2.5
v -3 2 -3.5
v -2 0 3.5
v -2 0 2.5
v -2 1 3.5
v -2 1 2.5
v -2 1 -3.5
v -2 1 -4.5
v -2 8 -3.5
v -2 8 -4.5
v -1 0 2.5
v -1 0 -4.5
v -1 1 2.5
v -1 1 -4.5
v -1 8 -3.5
v -1 8 -4.5
v -1 9 -3.5
v -1 9 -4.5
v 1 15 -3.5
v 1 15 -4.5
v 1 16 -3.5
v 1 16 -4.5
v 2 14 -3.5
v 2 14 -4.5
v 2 15 -3.5
v 2 15 -4.5
v 3 13 -3.5
v 3 13 -4.5
v 3 14 -3.5
v 3 14 -4.5
v 4 12 -3.5
v 4 12 -4.5
v 4 13 -3.5
v 4 13 -4.5
v 5 0 4.5
v 5 0 3.5
v 5 1 4.5
v 5 1 3.5
v 5 1 2.5
v 5 1 -3.5
v 5 2 2.5
v 5 2 -3.5
v 5 2 -4.5
v 5 4 -3.5
v 5 4 -4.5
v 5 11 -3.5
v 5 11 -4.5
v 5 12 -3.5
v 5 12 -4.5
v 6 0 3.5
v 6 0 2.5
v 6 1 3.5
v 6 1 2.5
v 6 1 -3.5
v 6 1 -4.5
v 6 2 -3.5
v 6 2 -4.5
v 6 10 -3.5
v 6 10 -4.5
v 6 11 -3.5
v 6 11 -4.5
v 7 0 2.5
v 7 0 -4.5
v 7 1 2.5
v 7 1 -4.5
v 8 4 -3.5
v 8 4 -4.5
v 8 5 -3.5
v 8 5 -4.5
v 9 5 -3.5
v 9 5 -4.5
v 9 7 -3.5
v 9 7 -4.5
v 9 15 -3.5
v 9 15 -4.5
v 9 16 -3.5
v 9 16 -4.5
v 10 7 -3.5
v 10 7 -4.5
v 10 15 -3.5
v 10 15 -4.5
v -5 0 4.5
v -5 1 4.5
v -3 0 4.5
v -3 1 4.5
v 3 0 4.5
v 3 1 4.5
v 5 0 4.5
v 5 1 4.5
v -6 0 3.5
v -6 1 3.5
v -5 0 3.5
v -5 1 3.5
v -3 0 3.5
v -3 1 3.5
v -2 0 3.5
v -2 1 3.5
v 2 0 3.5
v 2 1 3.5
v 3 0 3.5
v 3 1 3.5
v 5 0 3.5
v 5 1 3.5
v 6 0 3.5
v 6 1 3.5
v -7 0 2.5
v -7 1 2.5
v -6 0 2.5
v -6 1 2.5
v -5 1 2.5
v -5 2 2.5
v -3 1 2.5
v -3 2 2.5
v -2 0 2.5
v -2 1 2.5
v -1 0 2.5
v -1 1 2.5
v 1 0 2.5
v 1 1 2.5
v 2 0 2.5
v 2 1 2.5
v 3 1 2.5
v 3 2 2.5
v 5 1 2.5
v 5 2 2.5
v 6 0 2.5
v 6 1 2.5
v 7 0 2.5
v 7 1 2.5
v -10 7 -3.5
v -10 15 -3.5
v -9 5 -3.5
v -9 7 -3.5
v -9 12 -3.5
v -9 13 -3.5
v -9 15 -3.5
v -9 16 -3.5
v -8 4 -3.5
v -8 5 -3.5
v -8 7 -3.5
v -8 8 -3.5
v -8 12 -3.5
v -8 13 -3.5
v -7 8 -3.5
v -7 9 -3.5
v -7 10 -3.5
v -7 13 -3.5
v -7 15 -3.5
v -7 16 -3.5
v -6 1 -3.5
v -6 2 -3.5
v -6 9 -3.5
v -6 10 -3.5
v -6 11 -3.5
v -6 13 -3.5
v -6 15 -3.5
v -5 1 -3.5
v -5 2 -3.5
v -5 4 -3.5
v -5 5 -3.5
v -5 6 -3.5
v -5 10 -3.5
v -5 11 -3.5
v -5 12 -3.5
v -4 2 -3.5
v -4 3 -3.5
v -4 6 -3.5
v -4 7 -3.5
v -4 11 -3.5
v -4 12 -3.5
v -4 13 -3.5
v -3 1 -3.5
v -3 2 -3.5
v -3 3 -3.5
v -3 7 -3.5
v -3 8 -3.5
v -3 12 -3.5
v -3 13 -3.5
v -3 14 -3.5
v -2 1 -3.5
v -2 8 -3.5
v -2 9 -3.5
v -2 13 -3.5
v -2 14 -3.5
v -2 15 -3.5
v -1 8 -3.5
v -1 9 -3.5
v -1 10 -3.5
v -1 14 -3.5
v -1 15 -3.5
v -1 16 -3.5
v 1 8 -3.5
v 1 9 -3.5
v 1 10 -3.5
v 1 14 -3.5
v 1 15 -3.5
v 1 16 -3.5
v 2 1 -3.5
v 2 8 -3.5
v 2 9 -3.5
v 2 13 -3.5
v 2 14 -3.5
v 2 15 -3.5
v 3 1 -3.5
v 3 2 -3.5
v 3 3 -3.5
v 3 7 -3.5
v 3 8 -3.5
v 3 12 -3.5
v 3 13 -3.5
v 3 14 -3.5
v 4 2 -3.5
v 4 3 -3.5
v 4 6 -3.5
v 4 7 -3.5
v 4 11 -3.5
v 4 12 -3.5
v 4 13 -3.5
v 5 1 -3.5
v 5 2 -3.5
v 5 4 -3.5
v 5 5 -3.5
v 5 6 -3.5
v 5 10 -3.5
v 5 11 -3.5
v 5 12 -3.5
v 6 1 -3.5
v 6 2 -3.5
v 6 9 -3.5
v 6 10 -3.5
v 6 11 -3.5
v 6 13 -3.5
v 6 15 -3.5
v 7 8 -3.5
v 7 9 -3.5
v 7 10 -3.5
v 7 13 -3.5
v 7 15 -3.5
v 7 16 -3.5
v 8 4 -3.5
v 8 5 -3.5
v 8 7 -3.5
v 8 8 -3.5
v 8 12 -3.5
v 8 13 -3.5
v 9 5 -3.5
v 9 7 -3.5
v 9 12 -3.5
v 9 13 -3.5
v 9 15 -3.5
v 9 16 -3.5
v 10 7 -3.5
v 10 15 -3.5
v -10 7 -4.5
v -10 15 -4.5
v -9 5 -4.5
v -9 7 -4.5
v -9 12 -4.5
v -9 13 -4.5
v -9 15 -4.5
v -9 16 -4.5
v -8 4 -4.5
v -8 5 -4.5
v -8 7 -4.5
v -8 8 -4.5
v -8 12 -4.5
v -8 13 -4.5
v -7 0 -4.5
v -7 1 -4.5
v -7 8 -4.5
v -7 9 -4.5
v -7 10 -4.5
v -7 13 -4.5
v -7 15 -4.5
v -7 16 -4.5
v -6 1 -4.5
v -6 2 -4.5
v -6 9 -4.5
v -6 10 -4.5
v -6 11 -4.5
v -6 13 -4.5
v -6 15 -4.5
v -5 1 -4.5
v -5 2 -4.5
v -5 4 -4.5
v -5 5 -4.5
v -5 6 -4.5
v -5 10 -4.5
v -5 11 -4.5
v -5 12 -4.5
v -4 2 -4.5
v -4 3 -4.5
v -4 6 -4.5
v -4 7 -4.5
v -4 11 -4.5
v -4 12 -4.5
v -4 13 -4.5
v -3 1 -4.5
v -3 2 -4.5
v -3 3 -4.5
v -3 7 -4.5
v -3 8 -4.5
v -3 12 -4.5
v -3 13 -4.5
v -3 14 -4.5
v -2 1 -4.5
v -2 8 -4.5
v -2 9 -4.5
v -2 13 -4.5
v -2 14 -4.5
v -2 15 -4.5
v -1 0 -4.5
v -1 1 -4.5
v -1 8 -4.5
v -1 9 -4.5
v -1 10 -4.5
v -1 14 -4.5
v -1 15 -4.5
v -1 16 -4.5
v 1 0 -4.5
v 1 1 -4.5
v 1 8 -4.5
v 1 9 -4.5
v 1 10 -4.5
v 1 14 -4.5
v 1 15 -4.5
v 1 16 -4.5
v 2 1 -4.5
v 2 8 -4.5
v 2 9 -4.5
v 2 13 -4.5
v 2 14 -4.5
v 2 15 -4.5
v 3 1 -4.5
v 3 2 -4.5
v 3 3 -4.5
v 3 7 -4.5
v 3 8 -4.5
v 3 12 -4.5
v 3 13 -4.5
v 3 14 -4.5
v 4 2 -4.5
v 4 3 -4.5
v 4 6 -4.5
v 4 7 -4.5
v 4 11 -4.5
v 4 12 -4.5
v 4 13 -4.5
v 5 1 -4.5
v 5 2 -4.5
v 5 4 -4.5
v 5 5 -4.5
v 5 6 -4.5
v 5 10 -4.5
v 5 11 -4.5
v 5 12 -4.5
v 6 1 -4.5
v 6 2 -4.5
v 6 9 -4.5
v 6 10 -4.5
v 6 11 -4.5
v 6 13 -4.5
v 6 15 -4.5
v 7 0 -4.5
v 7 1 -4.5
v 7 8 -4.5
v 7 9 -4.5
v 7 10 -4.5
v 7 13 -4.5
v 7 15 -4.5
v 7 16 -4.5
v 8 4 -4.5
v 8 5 -4.5
v 8 7 -4.5
v 8 8 -4.5
v 8 12 -4.5
v 8 13 -4.5
v 9 5 -4.5
v 9 7 -4.5
v 9 12 -4.5
v 9 13 -4.5
v 9 15 -4.5
v 9 16 -4.5
v 10 7 -4.5
v 10 15 -4.5
v -5 0 4.5
v -3 0 4.5
v 3 0 4.5
v 5 0 4.5
v -6 0 3.5
v -5 0 3.5
v -3 0 3.5
v -2 0 3.5
v 2 0 3.5
v 3 0 3.5
v 5 0 3.5
v 6 0 3.5
v -7 0 2.5
v -6 0 2.5
v -5 0 2.5
v -3 0 2.5
v -2 0 2.5
v -1 0 2.5
v 1 0 2.5
v 2 0 2.5
v 3 0 2.5
v 5 0 2.5
v 6 0 2.5
v 7 0 2.5
v -6 0 -3.5
v -2 0 -3.5
v 2 0 -3.5
v 6 0 -3.5
v -7 0 -4.5
v -1 0 -4.5
v 1 0 -4.5
v 7 0 -4.5
v -8 4 -3.5
v -5 4 -3.5
v 5 4 -3.5
v 8 4 -3.5
v -8 4 -4.5
v -5 4 -4.5
v 5 4 -4.5
v 8 4 -4.5
v -9 5 -3.5
v -8 5 -3.5
v 8 5 -3.5
v 9 5 -3.5
v -9 5 -4.5
v -8 5 -4.5
v 8 5 -4.5
v 9 5 -4.5
v -10 7 -3.5
v -9 7 -3.5
v 9 7 -3.5
v 10 7 -3.5
v -10 7 -4.5
v -9 7 -4.5
v 9 7 -4.5
v 10 7 -4.5
v -2 8 -3.5
v -1 8 -3.5
v 1 8 -3.5
v 2 8 -3.5
v -2 8 -4.5
v -1 8 -4.5
v 1 8 -4.5
v 2 8 -4.5
v -1 9 -3.5
v 1 9 -3.5
v -1 9 -4.5
v 1 9 -4.5
v -7 13 -3.5
v -6 13 -3.5
v 6 13 -3.5
v 7 13 -3.5
v -7 13 -4.5
v -6 13 -4.5
v 6 13 -4.5
v 7 13 -4.5
v -5 1 4.5
v -3 1 4.5
v 3 1 4.5
v 5 1 4.5
v -6 1 3.5
v -5 1 3.5
v -3 1 3.5
v -2 1 3.5
v 2 1 3.5
v 3 1 3.5
v 5 1 3.5
v 6 1 3.5
v -7 1 2.5
v -6 1 2.5
v -5 1 2.5
v -3 1 2.5
v -2 1 2.5
v -1 1 2.5
v 1 1 2.5
v 2 1 2.5
v 3 1 2.5
v 5 1 2.5
v 6 1 2.5
v 7 1 2.5
v -6 1 -3.5
v -5 1 -3.5
v -3 1 -3.5
v -2 1 -3.5
v 2 1 -3.5
v 3 1 -3.5
v 5 1 -3.5
v 6 1 -3.5
v -7 1 -4.5
v -6 1 -4.5
v -2 1 -4.5
v -1 1 -4.5
v 1 1 -4.5
v 2 1 -4.5
v 6 1 -4.5
v 7 1 -4.5
v -5 2 2.5
v -3 2 2.5
v 3 2 2.5
v 5 2 2.5
v -6 2 -3.5
v -5 2 -3.5
v -4 2 -3.5
v -3 2 -3.5
v 3 2 -3.5
v 4 2 -3.5
v 5 2 -3.5
v 6 2 -3.5
v -6 2 -4.5
v -5 2 -4.5
v 5 2 -4.5
v 6 2 -4.5
v -7 10 -3.5
v -6 10 -3.5
v 6 10 -3.5
v 7 10 -3.5
v -7 10 -4.5
v -6 10 -4.5
v 6 10 -4.5
v 7 10 -4.5
v -6 11 -3.5
v -5 11 -3.5
v 5 11 -3.5
v 6 11 -3.5
v -6 11 -4.5
v -5 11 -4.5
v 5 11 -4.5
v 6 11 -4.5
v -5 12 -3.5
v -4 12 -3.5
v 4 12 -3.5
v 5 12 -3.5
v -5 12 -4.5
v -4 12 -4.5
v 4 12 -4.5
v 5 12 -4.5
v -4 13 -3.5
v -3 13 -3.5
v 3 13 -3.5
v 4 13 -3.5
v -4 13 -4.5
v -3 13 -4.5
v 3 13 -4.5
v 4 13 -4.5
v -3 14 -3.5
v -2 14 -3.5
v 2 14 -3.5
v 3 14 -3.5
v -3 14 -4.5
v -2 14 -4.5
v 2 14 -4.5
v 3 14 -4.5
v -10 15 -3.5
v -9 15 -3.5
v -7 15 -3.5
v -6 15 -3.5
v -2 15 -3.5
v -1 15 -3.5
v 1 15 -3.5
v 2 15 -3.5
v 6 15 -3.5
v 7 15 -3.5
v 9 15 -3.5
v 10 15 -3.5
v -10 15 -4.5
v -9 15 -4.5
v -7 15 -4.5
v -6 15 -4.5
v -2 15 -4.5
v -1 15 -4.5
v 1 15 -4.5
v 2 15 -4.5
v 6 15 -4.5
v 7 15 -4.5
v 9 15 -4.5
v 10 15 -4.5
v -9 16 -3.5
v -7 16 -3.5
v -1 16 -3.5
v 1 16 -3.5
v 7 16 -3.5
v 9 16 -3.5
v -9 16 -4.5
v -7 16 -4.5
v -1 16 -4.5
v 1 16 -4.5
v 7 16 -4.5
v 9 16 -4.5

# faces
f 3/4/1 2/4/1 1/4/1
f 4/4/1 2/4/1 3/4/1
f 7/4/1 6/4/1 5/4/1
f 8/4/1 6/4/1 7/4/1
f 11/4/1 10/4/1 9/4/1
f 12/4/1 10/4/1 11/4/1
f 15/4/1 14/4/1 13/4/1
f 16/4/1 14/4/1 15/4/1
f 19/4/1 18/4/1 17/4/1
f 20/4/1 18/4/1 19/4/1
f 23/4/1 22/4/1 21/4/1
f 24/4/1 22/4/1 23/4/1
f 27/4/1 26/4/1 25/4/1
f 28/4/1 26/4/1 27/4/1
f 31/4/1 30/4/1 29/4/1
f 32/4/1 30/4/1 31/4/1
f 35/4/1 34/4/1 33/4/1
f 36/4/1 34/4/1 35/4/1
f 39/1/1 38/1/1 37/1/1
f 40/1/1 38/1/1 39/1/1
f 42/4/1 41/4/1 40/4/1
f 43/4/1 41/4/1 42/4/1
f 46/4/1 45/4/1 44/4/1
f 47/4/1 45/4/1 46/4/1
f 50/4/1 49/4/1 48/4/1
f 51/4/1 49/4/1 50/4/1
f 54/4/1 53/4/1 52/4/1
f 55/4/1 53/4/1 54/4/1
f 58/4/1 57/4/1 56/4/1
f 59/4/1 57/4/1 58/4/1
f 62/4/1 61/4/1 60/4/1
f 63/4/1 61/4/1 62/4/1
f 66/4/1 65/4/1 64/4/1
f 67/4/1 65/4/1 66/4/1
f 70/4/1 69/4/1 68/4/1
f 71/4/1 69/4/1 70/4/1
f 74/4/1 73/4/1 72/4/1
f 75/4/1 73/4/1 74/4/1
f 78/4/1 77/4/1 76/4/1
f 79/4/1 77/4/1 78/4/1
f 82/4/1 81/4/1 80/4/1
f 83/4/1 81/4/1 82/4/1
f 86/1/1 85/1/1 84/1/1
f 87/1/1 85/1/1 86/1/1
f 90/4/1 89/4/1 88/4/1
f 91/4/1 89/4/1 90/4/1
f 94/4/1 93/4/1 92/4/1
f 95/4/1 93/4/1 94/4/1
f 98/4/1 97/4/1 96/4/1
f 99/4/1 97/4/1 98/4/1
f 100/4/2 101/4/2 102/4/2
f 102/4/2 101/4/2 103/4/2
f 104/4/2 105/4/2 106/4/2
f 106/4/2 105/4/2 107/4/2
f 108/4/2 109/4/2 110/4/2
f 110/4/2 109/4/2 111/4/2
f 112/4/2 113/4/2 114/4/2
f 114/4/2 113/4/2 115/4/2
f 116/1/2 117/1/2 118/1/2
f 118/1/2 117/1/2 119/1/2
f 120/4/2 121/4/2 122/4/2
f 122/4/2 121/4/2 123/4/2
f 124/4/2 125/4/2 126/4/2
f 126/4/2 125/4/2 127/4/2
f 128/4/2 129/4/2 130/4/2
f 130/4/2 129/4/2 131/4/2
f 132/4/2 133/4/2 134/4/2
f 134/4/2 133/4/2 135/4/2
f 136/4/2 137/4/2 138/4/2
f 138/4/2 137/4/2 139/4/2
f 140/4/2 141/4/2 142/4/2
f 142/4/2 141/4/2 143/4/2
f 144/4/2 145/4/2 146/4/2
f 146/4/2 145/4/2 147/4/2
f 148/4/2 149/4/2 150/4/2
f 150/4/2 149/4/2 151/4/2
f 152/4/2 153/4/2 154/4/2
f 154/4/2 153/4/2 155/4/2
f 156/1/2 157/1/2 158/1/2
f 158/1/2 157/1/2 159/1/2
f 159/4/2 160/4/2 161/4/2
f 161/4/2 160/4/2 162/4/2
f 163/4/2 164/4/2 165/4/2
f 165/4/2 164/4/2 166/4/2
f 167/4/2 168/4/2 169/4/2
f 169/4/2 168/4/2 170/4/2
f 171/4/2 172/4/2 173/4/2
f 173/4/2 172/4/2 174/4/2
f 175/4/2 176/4/2 177/4/2
f 177/4/2 176/4/2 178/4/2
f 179/4/2 180/4/2 181/4/2
f 181/4/2 180/4/2 182/4/2
f 183/4/2 184/4/2 185/4/2
f 185/4/2 184/4/2 186/4/2
f 187/4/2 188/4/2 189/4/2
f 189/4/2 188/4/2 190/4/2
f 191/4/2 192/4/2 193/4/2
f 193/4/2 192/4/2 194/4/2
f 195/4/2 196/4/2 197/4/2
f 197/4/2 196/4/2 198/4/2
f 201/4/3 200/4/3 199/4/3
f 202/4/3 200/4/3 201/4/3
f 205/4/3 204/4/3 203/4/3
f 206/4/3 204/4/3 205/4/3
f 209/4/3 208/4/3 207/4/3
f 210/4/3 208/4/3 209/4/3
f 213/4/3 212/4/3 211/4/3
f 214/4/3 212/4/3 213/4/3
f 217/4/3 216/4/3 215/4/3
f 218/4/3 216/4/3 217/4/3
f 221/4/3 220/4/3 219/4/3
f 222/4/3 220/4/3 221/4/3
f 225/4/3 224/4/3 223/4/3
f 226/4/3 224/4/3 225/4/3
f 229/1/3 228/1/3 227/1/3
f 230/1/3 228/1/3 229/1/3
f 233/4/3 232/4/3 231/4/3
f 234/4/3 232/4/3 233/4/3
f 237/4/3 236/4/3 235/4/3
f 238/4/3 236/4/3 237/4/3
f 241/1/3 240/1/3 239/1/3
f 242/1/3 240/1/3 241/1/3
f 245/4/3 244/4/3 243/4/3
f 246/4/3 244/4/3 245/4/3
f 250/4/3 248/4/3 247/4/3
f 251/4/3 248/4/3 250/4/3
f 252/4/3 248/4/3 251/4/3
f 253/4/3 248/4/3 252/4/3
f 256/4/3 250/4/3 249/4/3
f 257/2/3 251/2/3 250/2/3
f 257/4/3 250/4/3 256/4/3
f 258/2/3 251/2/3 257/2/3
f 259/3/3 252/3/3 251/3/3
f 259/2/3 251/2/3 258/2/3
f 260/2/3 253/2/3 252/2/3
f 260/3/3 252/3/3 259/3/3
f 261/1/3 258/1/3 257/1/3
f 261/4/3 259/4/3 258/4/3
f 261/4/3 260/4/3 259/4/3
f 261/1/3 257/1/3 256/1/3
f 262/4/3 260/4/3 261/4/3
f 263/4/3 260/4/3 262/4/3
f 264/2/3 253/2/3 260/2/3
f 264/4/3 260/4/3 263/4/3
f 265/4/3 254/4/3 253/4/3
f 265/2/3 253/2/3 264/2/3
f 266/4/3 254/4/3 265/4/3
f 269/4/3 263/4/3 262/4/3
f 269/1/3 262/1/3 261/1/3
f 270/4/3 263/4/3 269/4/3
f 272/4/3 265/4/3 264/4/3
f 273/4/3 265/4/3 272/4/3
f 274/4/3 268/4/3 267/4/3
f 275/4/3 268/4/3 274/4/3
f 276/4/3 256/4/3 255/4/3
f 277/1/3 261/1/3 256/1/3
f 277/1/3 269/1/3 261/1/3
f 277/4/3 256/4/3 276/4/3
f 277/1/3 270/1/3 269/1/3
f 278/1/3 270/1/3 277/1/3
f 279/4/3 271/4/3 270/4/3
f 279/1/3 270/1/3 278/1/3
f 280/4/3 271/4/3 279/4/3
f 282/4/3 276/4/3 275/4/3
f 282/4/3 278/4/3 277/4/3
f 282/4/3 277/4/3 276/4/3
f 283/4/3 278/4/3 282/4/3
f 284/1/3 280/1/3 279/1/3
f 284/4/3 278/4/3 283/4/3
f 284/1/3 279/1/3 278/1/3
f 285/1/3 280/1/3 284/1/3
f 286/4/3 281/4/3 280/4/3
f 286/1/3 280/1/3 285/1/3
f 287/4/3 281/4/3 286/4/3
f 290/3/3 283/3/3 282/3/3
f 291/2/3 285/2/3 284/2/3
f 291/2/3 284/2/3 283/2/3
f 291/3/3 283/3/3 290/3/3
f 292/1/3 286/1/3 285/1/3
f 292/2/3 285/2/3 291/2/3
f 292/1/3 287/1/3 286/1/3
f 293/1/3 287/1/3 292/1/3
f 294/4/3 288/4/3 287/4/3
f 294/1/3 287/1/3 293/1/3
f 295/4/3 288/4/3 294/4/3
f 297/4/3 290/4/3 289/4/3
f 297/4/3 293/4/3 292/4/3
f 297/4/3 291/4/3 290/4/3
f 297/4/3 292/4/3 291/4/3
f 298/1/3 295/1/3 294/1/3
f 298/4/3 293/4/3 297/4/3
f 298/1/3 294/1/3 293/1/3
f 299/1/3 295/1/3 298/1/3
f 300/4/3 296/4/3 295/4/3
f 300/1/3 295/1/3 299/1/3
f 301/4/3 296/4/3 300/4/3
f 303/4/3 299/4/3 298/4/3
f 304/1/3 301/1/3 300/1/3
f 304/4/3 299/4/3 303/4/3
f 304/1/3 300/1/3 299/1/3
f 305/1/3 301/1/3 304/1/3
f 306/4/3 302/4/3 301/4/3
f 306/1/3 301/1/3 305/1/3
f 307/4/3 302/4/3 306/4/3
f 310/4/3 305/4/3 304/4/3
f 311/1/3 306/1/3 305/1/3
f 311/1/3 307/1/3 306/1/3
f 311/4/3 305/4/3 310/4/3
f 312/1/3 307/1/3 311/1/3
f 313/4/3 308/4/3 307/4/3
f 313/1/3 307/1/3 312/1/3
f 314/4/3 308/4/3 313/4/3
f 316/4/3 310/4/3 309/4/3
f 317/1/3 312/1/3 311/1/3
f 317/1/3 311/1/3 310/1/3
f 317/4/3 310/4/3 316/4/3
f 318/1/3 312/1/3 317/1/3
f 319/4/3 313/4/3 312/4/3
f 319/1/3 312/1/3 318/1/3
f 320/4/3 313/4/3 319/4/3
f 321/4/3 316/4/3 315/4/3
f 322/4/3 316/4/3 321/4/3
f 323/4/3 316/4/3 322/4/3
f 324/4/3 316/4/3 323/4/3
f 325/1/3 318/1/3 317/1/3
f 325/4/3 316/4/3 324/4/3
f 325/1/3 317/1/3 316/1/3
f 326/1/3 318/1/3 325/1/3
f 327/4/3 319/4/3 318/4/3
f 327/1/3 318/1/3 326/1/3
f 328/4/3 319/4/3 327/4/3
f 329/3/3 323/3/3 322/3/3
f 330/2/3 324/2/3 323/2/3
f 330/3/3 323/3/3 329/3/3
f 331/2/3 324/2/3 330/2/3
f 332/1/3 326/1/3 325/1/3
f 332/2/3 324/2/3 331/2/3
f 332/1/3 325/1/3 324/1/3
f 333/1/3 326/1/3 332/1/3
f 334/4/3 327/4/3 326/4/3
f 334/1/3 326/1/3 333/1/3
f 335/4/3 327/4/3 334/4/3
f 337/4/3 331/4/3 330/4/3
f 337/4/3 330/4/3 329/4/3
f 338/4/3 331/4/3 337/4/3
f 339/4/3 331/4/3 338/4/3
f 340/1/3 333/1/3 332/1/3
f 340/4/3 331/4/3 339/4/3
f 340/1/3 332/1/3 331/1/3
f 341/1/3 333/1/3 340/1/3
f 342/4/3 334/4/3 333/4/3
f 342/1/3 333/1/3 341/1/3
f 343/4/3 334/4/3 342/4/3
f 344/4/3 337/4/3 336/4/3
f 345/4/3 337/4/3 344/4/3
f 346/1/3 341/1/3 340/1/3
f 346/1/3 340/1/3 339/1/3
f 347/4/3 342/4/3 341/4/3
f 347/1/3 341/1/3 346/1/3
f 348/4/3 342/4/3 347/4/3
f 351/1/3 346/1/3 339/1/3
f 352/4/3 347/4/3 346/4/3
f 352/1/3 346/1/3 351/1/3
f 353/4/3 347/4/3 352/4/3
f 354/4/3 350/4/3 349/4/3
f 355/4/3 350/4/3 354/4/3
f 357/4/3 339/4/3 338/4/3
f 358/1/3 351/1/3 339/1/3
f 358/4/3 339/4/3 357/4/3
f 359/1/3 351/1/3 358/1/3
f 360/4/3 353/4/3 352/4/3
f 360/1/3 351/1/3 359/1/3
f 360/4/3 352/4/3 351/4/3
f 360/4/3 354/4/3 353/4/3
f 361/4/3 354/4/3 360/4/3
f 362/2/3 355/2/3 354/2/3
f 362/4/3 354/4/3 361/4/3
f 363/4/3 359/4/3 358/4/3
f 364/2/3 361/2/3 360/2/3
f 364/4/3 359/4/3 363/4/3
f 364/2/3 360/2/3 359/2/3
f 365/3/3 362/3/3 361/3/3
f 365/2/3 361/2/3 364/2/3
f 366/2/3 355/2/3 362/2/3
f 366/3/3 362/3/3 365/3/3
f 367/4/3 356/4/3 355/4/3
f 367/2/3 355/2/3 366/2/3
f 368/4/3 356/4/3 367/4/3
f 369/4/3 366/4/3 365/4/3
f 369/4/3 365/4/3 364/4/3
f 369/4/3 367/4/3 366/4/3
f 370/4/3 367/4/3 369/4/3
f 371/4/4 372/4/4 374/4/4
f 374/4/4 372/4/4 375/4/4
f 375/4/4 372/4/4 376/4/4
f 376/4/4 372/4/4 377/4/4
f 373/4/4 374/4/4 380/4/4
f 374/2/4 375/2/4 381/2/4
f 380/4/4 374/4/4 381/4/4
f 381/2/4 375/2/4 382/2/4
f 375/3/4 376/3/4 383/3/4
f 382/2/4 375/2/4 383/2/4
f 376/2/4 377/2/4 384/2/4
f 383/3/4 376/3/4 384/3/4
f 381/1/4 382/1/4 387/1/4
f 382/4/4 383/4/4 387/4/4
f 380/1/4 381/1/4 387/1/4
f 383/4/4 384/4/4 387/4/4
f 387/4/4 384/4/4 388/4/4
f 388/4/4 384/4/4 389/4/4
f 384/2/4 377/2/4 390/2/4
f 389/4/4 384/4/4 390/4/4
f 377/4/4 378/4/4 391/4/4
f 390/2/4 377/2/4 391/2/4
f 391/4/4 378/4/4 392/4/4
f 385/4/4 386/4/4 393/4/4
f 388/4/4 389/4/4 395/4/4
f 387/1/4 388/1/4 395/1/4
f 395/4/4 389/4/4 396/4/4
f 390/4/4 391/4/4 398/4/4
f 398/4/4 391/4/4 399/4/4
f 393/4/4 394/4/4 400/4/4
f 385/4/4 393/4/4 400/4/4
f 400/4/4 394/4/4 401/4/4
f 379/4/4 380/4/4 402/4/4
f 380/1/4 387/1/4 403/1/4
f 387/1/4 395/1/4 403/1/4
f 402/4/4 380/4/4 403/4/4
f 395/1/4 396/1/4 403/1/4
f 403/1/4 396/1/4 404/1/4
f 396/4/4 397/4/4 405/4/4
f 404/1/4 396/1/4 405/1/4
f 405/4/4 397/4/4 406/4/4
f 400/1/4 401/1/4 408/1/4
f 403/4/4 404/4/4 408/4/4
f 401/4/4 402/4/4 408/4/4
f 402/4/4 403/4/4 408/4/4
f 408/4/4 404/4/4 409/4/4
f 405/1/4 406/1/4 410/1/4
f 409/4/4 404/4/4 410/4/4
f 404/1/4 405/1/4 410/1/4
f 410/1/4 406/1/4 411/1/4
f 406/4/4 407/4/4 412/4/4
f 411/1/4 406/1/4 412/1/4
f 412/4/4 407/4/4 413/4/4
f 400/1/4 408/1/4 415/1/4
f 385/4/4 400/4/4 415/4/4
f 408/3/4 409/3/4 416/3/4
f 415/1/4 408/1/4 416/1/4
f 410/2/4 411/2/4 417/2/4
f 416/3/4 409/3/4 417/3/4
f 409/2/4 410/2/4 417/2/4
f 412/1/4 413/1/4 418/1/4
f 417/2/4 411/2/4 418/2/4
f 411/1/4 412/1/4 418/1/4
f 418/1/4 413/1/4 419/1/4
f 413/4/4 414/4/4 420/4/4
f 419/1/4 413/1/4 420/1/4
f 420/4/4 414/4/4 421/4/4
f 415/4/4 416/4/4 423/4/4
f 385/4/4 415/4/4 423/4/4
f 418/4/4 419/4/4 423/4/4
f 416/4/4 417/4/4 423/4/4
f 417/4/4 418/4/4 423/4/4
f 420/1/4 421/1/4 424/1/4
f 423/4/4 419/4/4 424/4/4
f 419/1/4 420/1/4 424/1/4
f 424/1/4 421/1/4 425/1/4
f 421/4/4 422/4/4 426/4/4
f 425/1/4 421/1/4 426/1/4
f 426/4/4 422/4/4 427/4/4
f 385/4/4 423/4/4 429/4/4
f 429/4/4 423/4/4 430/4/4
f 424/4/4 425/4/4 431/4/4
f 426/1/4 427/1/4 432/1/4
f 431/4/4 425/4/4 432/4/4
f 425/1/4 426/1/4 432/1/4
f 432/1/4 427/1/4 433/1/4
f 427/4/4 428/4/4 434/4/4
f 433/1/4 427/1/4 434/1/4
f 434/4/4 428/4/4 435/4/4
f 432/4/4 433/4/4 440/4/4
f 434/1/4 435/1/4 441/1/4
f 433/1/4 434/1/4 441/1/4
f 440/4/4 433/4/4 441/4/4
f 441/1/4 435/1/4 442/1/4
f 435/4/4 436/4/4 443/4/4
f 442/1/4 435/1/4 443/1/4
f 443/4/4 436/4/4 444/4/4
f 437/4/4 438/4/4 445/4/4
f 439/4/4 440/4/4 446/4/4
f 441/1/4 442/1/4 447/1/4
f 440/1/4 441/1/4 447/1/4
f 446/4/4 440/4/4 447/4/4
f 447/1/4 442/1/4 448/1/4
f 442/4/4 443/4/4 449/4/4
f 448/1/4 442/1/4 449/1/4
f 449/4/4 443/4/4 450/4/4
f 445/4/4 446/4/4 451/4/4
f 437/4/4 445/4/4 451/4/4
f 451/4/4 446/4/4 452/4/4
f 452/4/4 446/4/4 453/4/4
f 453/4/4 446/4/4 454/4/4
f 447/1/4 448/1/4 455/1/4
f 454/4/4 446/4/4 455/4/4
f 446/1/4 447/1/4 455/1/4
f 455/1/4 448/1/4 456/1/4
f 448/4/4 449/4/4 457/4/4
f 456/1/4 448/1/4 457/1/4
f 457/4/4 449/4/4 458/4/4
f 452/3/4 453/3/4 459/3/4
f 451/1/4 452/1/4 459/1/4
f 453/2/4 454/2/4 460/2/4
f 459/3/4 453/3/4 460/3/4
f 460/2/4 454/2/4 461/2/4
f 455/1/4 456/1/4 462/1/4
f 461/2/4 454/2/4 462/2/4
f 454/1/4 455/1/4 462/1/4
f 462/1/4 456/1/4 463/1/4
f 456/4/4 457/4/4 464/4/4
f 463/1/4 456/1/4 464/1/4
f 464/4/4 457/4/4 465/4/4
f 451/1/4 459/1/4 466/1/4
f 437/4/4 451/4/4 466/4/4
f 460/4/4 461/4/4 467/4/4
f 466/1/4 459/1/4 467/1/4
f 459/4/4 460/4/4 467/4/4
f 467/4/4 461/4/4 468/4/4
f 468/4/4 461/4/4 469/4/4
f 462/1/4 463/1/4 470/1/4
f 469/4/4 461/4/4 470/4/4
f 461/1/4 462/1/4 470/1/4
f 470/1/4 463/1/4 471/1/4
f 463/4/4 464/4/4 472/4/4
f 471/1/4 463/1/4 472/1/4
f 472/4/4 464/4/4 473/4/4
f 437/4/4 466/4/4 474/4/4
f 466/4/4 467/4/4 474/4/4
f 474/4/4 467/4/4 475/4/4
f 470/1/4 471/1/4 476/1/4
f 469/1/4 470/1/4 476/1/4
f 471/4/4 472/4/4 477/4/4
f 476/1/4 471/1/4 477/1/4
f 477/4/4 472/4/4 478/4/4
f 437/4/4 474/4/4 481/4/4
f 481/4/4 474/4/4 482/4/4
f 469/1/4 476/1/4 483/1/4
f 476/4/4 477/4/4 484/4/4
f 483/1/4 476/1/4 484/1/4
f 484/4/4 477/4/4 485/4/4
f 479/4/4 480/4/4 486/4/4
f 486/4/4 480/4/4 487/4/4
f 468/4/4 469/4/4 489/4/4
f 469/1/4 483/1/4 490/1/4
f 489/4/4 469/4/4 490/4/4
f 490/1/4 483/1/4 491/1/4
f 484/4/4 485/4/4 492/4/4
f 491/1/4 483/1/4 492/1/4
f 485/4/4 486/4/4 492/4/4
f 483/4/4 484/4/4 492/4/4
f 492/4/4 486/4/4 493/4/4
f 486/2/4 487/2/4 494/2/4
f 493/4/4 486/4/4 494/4/4
f 490/4/4 491/4/4 495/4/4
f 492/2/4 493/2/4 496/2/4
f 495/4/4 491/4/4 496/4/4
f 491/2/4 492/2/4 496/2/4
f 493/3/4 494/3/4 497/3/4
f 496/2/4 493/2/4 497/2/4
f 494/2/4 487/2/4 498/2/4
f 497/3/4 494/3/4 498/3/4
f 487/4/4 488/4/4 499/4/4
f 498/2/4 487/2/4 499/2/4
f 499/4/4 488/4/4 500/4/4
f 496/4/4 497/4/4 501/4/4
f 497/4/4 498/4/4 501/4/4
f 498/4/4 499/4/4 501/4/4
f 501/4/4 499/4/4 502/4/4
f 508/4/5 504/4/5 503/4/5
f 509/4/5 504/4/5 508/4/5
f 512/4/5 506/4/5 505/4/5
f 513/4/5 506/4/5 512/4/5
f 516/4/5 508/4/5 507/4/5
f 517/1/5 509/1/5 508/1/5
f 517/4/5 508/4/5 516/4/5
f 518/4/5 510/4/5 509/4/5
f 518/1/5 509/1/5 517/1/5
f 519/4/5 510/4/5 518/4/5
f 522/4/5 512/4/5 511/4/5
f 523/1/5 513/1/5 512/1/5
f 523/4/5 512/4/5 522/4/5
f 524/4/5 514/4/5 513/4/5
f 524/1/5 513/1/5 523/1/5
f 525/4/5 514/4/5 524/4/5
f 527/1/5 517/1/5 516/1/5
f 527/4/5 516/4/5 515/4/5
f 527/1/5 518/1/5 517/1/5
f 527/1/5 519/1/5 518/1/5
f 528/4/5 520/4/5 519/4/5
f 528/1/5 519/1/5 527/1/5
f 529/1/5 523/1/5 522/1/5
f 529/1/5 525/1/5 524/1/5
f 529/4/5 522/4/5 521/4/5
f 529/1/5 524/1/5 523/1/5
f 530/4/5 526/4/5 525/4/5
f 530/1/5 525/1/5 529/1/5
f 531/4/5 528/4/5 527/4/5
f 531/4/5 527/4/5 515/4/5
f 532/4/5 520/4/5 528/4/5
f 532/4/5 528/4/5 531/4/5
f 533/4/5 529/4/5 521/4/5
f 533/4/5 530/4/5 529/4/5
f 534/4/5 526/4/5 530/4/5
f 534/4/5 530/4/5 533/4/5
f 539/4/5 536/4/5 535/4/5
f 540/4/5 536/4/5 539/4/5
f 541/4/5 538/4/5 537/4/5
f 542/4/5 538/4/5 541/4/5
f 547/4/5 544/4/5 543/4/5
f 548/4/5 544/4/5 547/4/5
f 549/4/5 546/4/5 545/4/5
f 550/4/5 546/4/5 549/4/5
f 555/4/5 552/4/5 551/4/5
f 556/4/5 552/4/5 555/4/5
f 557/4/5 554/4/5 553/4/5
f 558/4/5 554/4/5 557/4/5
f 563/4/5 560/4/5 559/4/5
f 564/4/5 560/4/5 563/4/5
f 565/4/5 562/4/5 561/4/5
f 566/4/5 562/4/5 565/4/5
f 569/4/5 568/4/5 567/4/5
f 570/4/5 568/4/5 569/4/5
f 575/4/5 572/4/5 571/4/5
f 576/4/5 572/4/5 575/4/5
f 577/4/5 574/4/5 573/4/5
f 578/4/5 574/4/5 577/4/5
f 579/4/6 580/4/6 584/4/6
f 584/4/6 580/4/6 585/4/6
f 581/4/6 582/4/6 588/4/6
f 588/4/6 582/4/6 589/4/6
f 583/4/6 584/4/6 592/4/6
f 584/1/6 585/1/6 593/1/6
f 592/4/6 584/4/6 593/4/6
f 585/4/6 586/4/6 594/4/6
f 593/1/6 585/1/6 594/1/6
f 594/4/6 586/4/6 595/4/6
f 587/4/6 588/4/6 598/4/6
f 588/1/6 589/1/6 599/1/6
f 598/4/6 588/4/6 599/4/6
f 589/4/6 590/4/6 600/4/6
f 599/1/6 589/1/6 600/1/6
f 600/4/6 590/4/6 601/4/6
f 592/1/6 593/1/6 603/1/6
f 591/4/6 592/4/6 603/4/6
f 603/1/6 593/1/6 604/1/6
f 594/1/6 595/1/6 605/1/6
f 595/4/6 596/4/6 606/4/6
f 605/1/6 595/1/6 606/1/6
f 598/1/6 599/1/6 607/1/6
f 597/4/6 598/4/6 607/4/6
f 607/1/6 599/1/6 608/1/6
f 600/1/6 601/1/6 609/1/6
f 601/4/6 602/4/6 610/4/6
f 609/1/6 601/1/6 610/1/6
f 591/4/6 603/4/6 611/4/6
f 611/4/6 603/4/6 612/4/6
f 606/4/6 596/4/6 613/4/6
f 613/4/6 596/4/6 614/4/6
f 597/4/6 607/4/6 615/4/6
f 615/4/6 607/4/6 616/4/6
f 610/4/6 602/4/6 617/4/6
f 617/4/6 602/4/6 618/4/6
f 619/1/6 620/1/6 624/1/6
f 624/1/6 620/1/6 625/1/6
f 625/1/6 620/1/6 626/1/6
f 621/1/6 622/1/6 627/1/6
f 627/1/6 622/1/6 628/1/6
f 628/1/6 622/1/6 629/1/6
f 623/4/6 624/4/6 631/4/6
f 631/4/6 624/4/6 632/4/6
f 629/4/6 630/4/6 633/4/6
f 633/4/6 630/4/6 634/4/6
f 635/4/6 636/4/6 639/4/6
f 639/4/6 636/4/6 640/4/6
f 637/4/6 638/4/6 641/4/6
f 641/4/6 638/4/6 642/4/6
f 643/4/6 644/4/6 647/4/6
f 647/4/6 644/4/6 648/4/6
f 645/4/6 646/4/6 649/4/6
f 649/4/6 646/4/6 650/4/6
f 651/4/6 652/4/6 655/4/6
f 655/4/6 652/4/6 656/4/6
f 653/4/6 654/4/6 657/4/6
f 657/4/6 654/4/6 658/4/6
f 659/4/6 660/4/6 663/4/6
f 663/4/6 660/4/6 664/4/6
f 661/4/6 662/4/6 665/4/6
f 665/4/6 662/4/6 666/4/6
f 667/4/6 668/4/6 671/4/6
f 671/4/6 668/4/6 672/4/6
f 669/4/6 670/4/6 673/4/6
f 673/4/6 670/4/6 674/4/6
f 675/4/6 676/4/6 687/4/6
f 687/4/6 676/4/6 688/4/6
f 677/4/6 678/4/6 689/4/6
f 689/4/6 678/4/6 690/4/6
f 679/4/6 680/4/6 691/4/6
f 691/4/6 680/4/6 692/4/6
f 681/4/6 682/4/6 693/4/6
f 693/4/6 682/4/6 694/4/6
f 683/4/6 684/4/6 695/4/6
f 695/4/6 684/4/6 696/4/6
f 685/4/6 686/4/6 697/4/6
f 697/4/6 686/4/6 698/4/6
f 699/4/6 700/4/6 705/4/6
f 705/4/6 700/4/6 706/4/6
f 701/4/6 702/4/6 707/4/6
f 707/4/6 702/4/6 708/4/6
f 703/4/6 704/4/6 709/4/6
f 709/4/6 704/4/6 710/4/6
