# MagicaVoxel @ ephtracy

# material
mtllib enemy2.mtl
usemtl palette

# normals
vn -1 0 0
vn 1 0 0
vn 0 0 1
vn 0 0 -1
vn 0 -1 0
vn 0 1 0

# texcoords
vt 0.0917969 0.5
vt 0.255859 0.5
vt 0.775391 0.5
vt 0.802734 0.5
vt 0.896484 0.5
vt 0.994141 0.5

# verts
v -4 9 0.5
v -4 9 -0.5
v -4 14 0.5
v -4 14 -0.5
v -3 5 0.5
v -3 5 -0.5
v -3 9 0.5
v -3 9 -0.5
v -3 14 0.5
v -3 14 -0.5
v -3 15 0.5
v -3 15 -0.5
v -2 0 0.5
v -2 0 -0.5
v -2 5 0.5
v -2 5 -0.5
v -1 15 0.5
v -1 15 -0.5
v -1 16 0.5
v -1 16 -0.5
v 1 15 0.5
v 1 15 -0.5
v 1 16 0.5
v 1 16 -0.5
v 2 0 0.5
v 2 0 -0.5
v 2 5 0.5
v 2 5 -0.5
v 3 5 0.5
v 3 5 -0.5
v 3 9 0.5
v 3 9 -0.5
v 3 14 0.5
v 3 14 -0.5
v 3 15 0.5
v 3 15 -0.5
v 4 9 0.5
v 4 9 -0.5
v 4 14 0.5
v 4 14 -0.5
v -4 9 0.5
v -4 14 0.5
v -3 5 0.5
v -3 9 0.5
v -3 14 0.5
v -3 15 0.5
v -2 0 0.5
v -2 5 0.5
v -2 9 0.5
v -1 1 0.5
v -1 5 0.5
v -1 8 0.5
v -1 10 0.5
v -1 12 0.5
v -1 14 0.5
v -1 15 0.5
v -1 16 0.5
v 0 1 0.5
v 0 5 0.5
v 0 10 0.5
v 0 12 0.5
v 1 1 0.5
v 1 5 0.5
v 1 8 0.5
v 1 9 0.5
v 1 12 0.5
v 1 14 0.5
v 1 15 0.5
v 1 16 0.5
v 2 0 0.5
v 2 5 0.5
v 2 9 0.5
v 2 14 0.5
v 3 5 0.5
v 3 9 0.5
v 3 14 0.5
v 3 15 0.5
v 4 9 0.5
v 4 14 0.5
v -4 9 -0.5
v -4 14 -0.5
v -3 5 -0.5
v -3 9 -0.5
v -3 14 -0.5
v -3 15 -0.5
v -2 0 -0.5
v -2 5 -0.5
v -2 9 -0.5
v -1 1 -0.5
v -1 5 -0.5
v -1 8 -0.5
v -1 10 -0.5
v -1 12 -0.5
v -1 14 -0.5
v -1 15 -0.5
v -1 16 -0.5
v 0 1 -0.5
v 0 5 -0.5
v 0 10 -0.5
v 0 12 -0.5
v 1 1 -0.5
v 1 5 -0.5
v 1 8 -0.5
v 1 9 -0.5
v 1 12 -0.5
v 1 14 -0.5
v 1 15 -0.5
v 1 16 -0.5
v 2 0 -0.5
v 2 5 -0.5
v 2 9 -0.5
v 2 14 -0.5
v 3 5 -0.5
v 3 9 -0.5
v 3 14 -0.5
v 3 15 -0.5
v 4 9 -0.5
v 4 14 -0.5
v -2 0 0.5
v 2 0 0.5
v -2 0 -0.5
v 2 0 -0.5
v -3 5 0.5
v -2 5 0.5
v 2 5 0.5
v 3 5 0.5
v -3 5 -0.5
v -2 5 -0.5
v 2 5 -0.5
v 3 5 -0.5
v -4 9 0.5
v -3 9 0.5
v 3 9 0.5
v 4 9 0.5
v -4 9 -0.5
v -3 9 -0.5
v 3 9 -0.5
v 4 9 -0.5
v -4 14 0.5
v -3 14 0.5
v 3 14 0.5
v 4 14 0.5
v -4 14 -0.5
v -3 14 -0.5
v 3 14 -0.5
v 4 14 -0.5
v -3 15 0.5
v -1 15 0.5
v 1 15 0.5
v 3 15 0.5
v -3 15 -0.5
v -1 15 -0.5
v 1 15 -0.5
v 3 15 -0.5
v -1 16 0.5
v 1 16 0.5
v -1 16 -0.5
v 1 16 -0.5

# faces
f 3/6/1 2/6/1 1/6/1
f 4/6/1 2/6/1 3/6/1
f 7/6/1 6/6/1 5/6/1
f 8/6/1 6/6/1 7/6/1
f 11/6/1 10/6/1 9/6/1
f 12/6/1 10/6/1 11/6/1
f 15/6/1 14/6/1 13/6/1
f 16/6/1 14/6/1 15/6/1
f 19/5/1 18/5/1 17/5/1
f 20/5/1 18/5/1 19/5/1
f 21/5/2 22/5/2 23/5/2
f 23/5/2 22/5/2 24/5/2
f 25/6/2 26/6/2 27/6/2
f 27/6/2 26/6/2 28/6/2
f 29/6/2 30/6/2 31/6/2
f 31/6/2 30/6/2 32/6/2
f 33/6/2 34/6/2 35/6/2
f 35/6/2 34/6/2 36/6/2
f 37/6/2 38/6/2 39/6/2
f 39/6/2 38/6/2 40/6/2
f 44/6/3 42/6/3 41/6/3
f 45/6/3 42/6/3 44/6/3
f 48/6/3 44/6/3 43/6/3
f 49/1/3 45/1/3 44/1/3
f 49/6/3 44/6/3 48/6/3
f 50/6/3 48/6/3 47/6/3
f 51/1/3 49/1/3 48/1/3
f 51/6/3 48/6/3 50/6/3
f 52/1/3 49/1/3 51/1/3
f 53/1/3 45/1/3 49/1/3
f 53/1/3 49/1/3 52/1/3
f 54/1/3 45/1/3 53/1/3
f 55/6/3 46/6/3 45/6/3
f 55/1/3 45/1/3 54/1/3
f 56/6/3 46/6/3 55/6/3
f 58/1/3 52/1/3 51/1/3
f 58/6/3 50/6/3 47/6/3
f 58/1/3 51/1/3 50/1/3
f 59/1/3 52/1/3 58/1/3
f 60/3/3 54/3/3 53/3/3
f 60/4/3 53/4/3 52/4/3
f 61/1/3 55/1/3 54/1/3
f 61/3/3 54/3/3 60/3/3
f 62/2/3 59/2/3 58/2/3
f 62/6/3 58/6/3 47/6/3
f 63/1/3 52/1/3 59/1/3
f 63/2/3 59/2/3 62/2/3
f 64/4/3 60/4/3 52/4/3
f 64/1/3 52/1/3 63/1/3
f 64/4/3 61/4/3 60/4/3
f 65/4/3 61/4/3 64/4/3
f 66/1/3 55/1/3 61/1/3
f 66/4/3 61/4/3 65/4/3
f 67/5/3 57/5/3 56/5/3
f 67/1/3 55/1/3 66/1/3
f 67/5/3 56/5/3 55/5/3
f 68/5/3 57/5/3 67/5/3
f 69/5/3 57/5/3 68/5/3
f 70/6/3 62/6/3 47/6/3
f 70/6/3 63/6/3 62/6/3
f 71/2/3 64/2/3 63/2/3
f 71/6/3 63/6/3 70/6/3
f 71/2/3 65/2/3 64/2/3
f 72/1/3 66/1/3 65/1/3
f 72/2/3 65/2/3 71/2/3
f 72/1/3 67/1/3 66/1/3
f 73/6/3 68/6/3 67/6/3
f 73/1/3 67/1/3 72/1/3
f 74/6/3 72/6/3 71/6/3
f 75/2/3 73/2/3 72/2/3
f 75/6/3 72/6/3 74/6/3
f 76/6/3 68/6/3 73/6/3
f 76/2/3 73/2/3 75/2/3
f 77/6/3 68/6/3 76/6/3
f 78/6/3 76/6/3 75/6/3
f 79/6/3 76/6/3 78/6/3
f 80/6/4 81/6/4 83/6/4
f 83/6/4 81/6/4 84/6/4
f 82/6/4 83/6/4 87/6/4
f 83/1/4 84/1/4 88/1/4
f 87/6/4 83/6/4 88/6/4
f 86/6/4 87/6/4 89/6/4
f 87/1/4 88/1/4 90/1/4
f 89/6/4 87/6/4 90/6/4
f 90/1/4 88/1/4 91/1/4
f 88/1/4 84/1/4 92/1/4
f 91/1/4 88/1/4 92/1/4
f 92/1/4 84/1/4 93/1/4
f 84/6/4 85/6/4 94/6/4
f 93/1/4 84/1/4 94/1/4
f 94/6/4 85/6/4 95/6/4
f 90/1/4 91/1/4 97/1/4
f 86/6/4 89/6/4 97/6/4
f 89/1/4 90/1/4 97/1/4
f 97/1/4 91/1/4 98/1/4
f 92/3/4 93/3/4 99/3/4
f 91/4/4 92/4/4 99/4/4
f 93/1/4 94/1/4 100/1/4
f 99/3/4 93/3/4 100/3/4
f 97/2/4 98/2/4 101/2/4
f 86/6/4 97/6/4 101/6/4
f 98/1/4 91/1/4 102/1/4
f 101/2/4 98/2/4 102/2/4
f 91/4/4 99/4/4 103/4/4
f 102/1/4 91/1/4 103/1/4
f 99/4/4 100/4/4 103/4/4
f 103/4/4 100/4/4 104/4/4
f 100/1/4 94/1/4 105/1/4
f 104/4/4 100/4/4 105/4/4
f 95/5/4 96/5/4 106/5/4
f 105/1/4 94/1/4 106/1/4
f 94/5/4 95/5/4 106/5/4
f 106/5/4 96/5/4 107/5/4
f 107/5/4 96/5/4 108/5/4
f 86/6/4 101/6/4 109/6/4
f 101/6/4 102/6/4 109/6/4
f 102/2/4 103/2/4 110/2/4
f 109/6/4 102/6/4 110/6/4
f 103/2/4 104/2/4 110/2/4
f 104/1/4 105/1/4 111/1/4
f 110/2/4 104/2/4 111/2/4
f 105/1/4 106/1/4 111/1/4
f 106/6/4 107/6/4 112/6/4
f 111/1/4 106/1/4 112/1/4
f 110/6/4 111/6/4 113/6/4
f 111/2/4 112/2/4 114/2/4
f 113/6/4 111/6/4 114/6/4
f 112/6/4 107/6/4 115/6/4
f 114/2/4 112/2/4 115/2/4
f 115/6/4 107/6/4 116/6/4
f 114/6/4 115/6/4 117/6/4
f 117/6/4 115/6/4 118/6/4
f 121/6/5 120/6/5 119/6/5
f 122/6/5 120/6/5 121/6/5
f 127/6/5 124/6/5 123/6/5
f 128/6/5 124/6/5 127/6/5
f 129/6/5 126/6/5 125/6/5
f 130/6/5 126/6/5 129/6/5
f 135/6/5 132/6/5 131/6/5
f 136/6/5 132/6/5 135/6/5
f 137/6/5 134/6/5 133/6/5
f 138/6/5 134/6/5 137/6/5
f 139/6/6 140/6/6 143/6/6
f 143/6/6 140/6/6 144/6/6
f 141/6/6 142/6/6 145/6/6
f 145/6/6 142/6/6 146/6/6
f 147/6/6 148/6/6 151/6/6
f 151/6/6 148/6/6 152/6/6
f 149/6/6 150/6/6 153/6/6
f 153/6/6 150/6/6 154/6/6
f 155/5/6 156/5/6 157/5/6
f 157/5/6 156/5/6 158/5/6
