# MagicaVoxel @ ephtracy

# material
mtllib item1.mtl
usemtl palette

# normals
vn -1 0 0
vn 1 0 0
vn 0 0 1
vn 0 0 -1
vn 0 -1 0
vn 0 1 0

# texcoords
vt 0.611328 0.5
vt 0.892578 0.5
vt 0.958984 0.5
vt 0.994141 0.5

# verts
v -10 1 3
v -10 1 -3
v -10 9 3
v -10 9 -3
v -10 11 3
v -10 11 -3
v -10 19 3
v -10 19 -3
v -9 0 3
v -9 0 -3
v -9 1 3
v -9 1 -3
v -9 9 2
v -9 9 -2
v -9 11 2
v -9 11 -2
v -9 19 3
v -9 19 -3
v -9 20 3
v -9 20 -3
v 1 0 3
v 1 0 2
v 1 0 -2
v 1 0 -3
v 1 1 2
v 1 1 -2
v 1 2 3
v 1 2 2
v 1 2 -2
v 1 2 -3
v 1 18 3
v 1 18 2
v 1 18 -2
v 1 18 -3
v 1 19 2
v 1 19 -2
v 1 20 3
v 1 20 -3
v 8 2 3
v 8 2 2
v 8 2 -2
v 8 2 -3
v 8 8 -2
v 8 9 3
v 8 9 2
v 8 9 -2
v 8 9 -3
v 8 11 3
v 8 11 2
v 8 11 -2
v 8 11 -3
v 8 18 3
v 8 18 2
v 8 18 -2
v 8 18 -3
v -8 2 3
v -8 2 2
v -8 2 -2
v -8 2 -3
v -8 8 2
v -8 9 3
v -8 9 2
v -8 9 -2
v -8 9 -3
v -8 11 3
v -8 11 2
v -8 11 -2
v -8 11 -3
v -8 18 3
v -8 18 2
v -8 18 -2
v -8 18 -3
v -1 0 3
v -1 0 2
v -1 0 -2
v -1 0 -3
v -1 1 2
v -1 1 -2
v -1 2 3
v -1 2 2
v -1 2 -2
v -1 2 -3
v -1 18 3
v -1 18 2
v -1 18 -2
v -1 18 -3
v -1 19 2
v -1 19 -2
v -1 20 3
v -1 20 -3
v 9 0 3
v 9 0 -3
v 9 1 3
v 9 1 -3
v 9 9 2
v 9 9 -2
v 9 11 2
v 9 11 -2
v 9 19 3
v 9 19 -3
v 9 20 3
v 9 20 -3
v 10 1 3
v 10 1 -3
v 10 9 3
v 10 9 -3
v 10 11 3
v 10 11 -3
v 10 19 3
v 10 19 -3
v -10 1 3
v -10 9 3
v -10 11 3
v -10 19 3
v -9 0 3
v -9 1 3
v -9 19 3
v -9 20 3
v -8 2 3
v -8 9 3
v -8 11 3
v -8 18 3
v -1 0 3
v -1 2 3
v -1 18 3
v -1 20 3
v 1 0 3
v 1 2 3
v 1 18 3
v 1 20 3
v 8 2 3
v 8 9 3
v 8 11 3
v 8 18 3
v 9 0 3
v 9 1 3
v 9 19 3
v 9 20 3
v 10 1 3
v 10 9 3
v 10 11 3
v 10 19 3
v -9 9 2
v -9 11 2
v -8 2 2
v -8 8 2
v -8 9 2
v -8 11 2
v -8 18 2
v -7 9 2
v -7 10 2
v -6 6 2
v -6 8 2
v -6 11 2
v -6 13 2
v -5 7 2
v -5 9 2
v -5 10 2
v -5 12 2
v -4 7 2
v -4 9 2
v -4 10 2
v -4 12 2
v -3 6 2
v -3 8 2
v -3 11 2
v -3 13 2
v -2 9 2
v -2 10 2
v -1 1 2
v -1 2 2
v -1 4 2
v -1 6 2
v -1 8 2
v -1 11 2
v -1 13 2
v -1 15 2
v -1 18 2
v -1 19 2
v 0 5 2
v 0 6 2
v 0 13 2
v 0 14 2
v 0 15 2
v 0 17 2
v 1 1 2
v 1 2 2
v 1 6 2
v 1 14 2
v 1 15 2
v 1 16 2
v 1 18 2
v 1 19 2
v 3 6 2
v 3 16 2
v 4 5 2
v 4 6 2
v 4 17 2
v 5 4 2
v 5 6 2
v 8 2 2
v 8 9 2
v 8 11 2
v 8 18 2
v 9 9 2
v 9 11 2
v -9 9 -2
v -9 11 -2
v -8 2 -2
v -8 9 -2
v -8 11 -2
v -8 18 -2
v -5 4 -2
v -5 6 -2
v -4 5 -2
v -4 6 -2
v -4 17 -2
v -3 6 -2
v -3 16 -2
v -1 1 -2
v -1 2 -2
v -1 6 -2
v -1 14 -2
v -1 15 -2
v -1 16 -2
v -1 18 -2
v -1 19 -2
v 0 5 -2
v 0 6 -2
v 0 13 -2
v 0 14 -2
v 0 15 -2
v 0 17 -2
v 1 1 -2
v 1 2 -2
v 1 4 -2
v 1 6 -2
v 1 8 -2
v 1 11 -2
v 1 13 -2
v 1 15 -2
v 1 18 -2
v 1 19 -2
v 2 9 -2
v 2 10 -2
v 3 6 -2
v 3 8 -2
v 3 11 -2
v 3 13 -2
v 4 7 -2
v 4 9 -2
v 4 10 -2
v 4 12 -2
v 5 7 -2
v 5 9 -2
v 5 10 -2
v 5 12 -2
v 6 6 -2
v 6 8 -2
v 6 11 -2
v 6 13 -2
v 7 9 -2
v 7 10 -2
v 8 2 -2
v 8 8 -2
v 8 9 -2
v 8 11 -2
v 8 18 -2
v 9 9 -2
v 9 11 -2
v -10 1 -3
v -10 9 -3
v -10 11 -3
v -10 19 -3
v -9 0 -3
v -9 1 -3
v -9 19 -3
v -9 20 -3
v -8 2 -3
v -8 9 -3
v -8 11 -3
v -8 18 -3
v -1 0 -3
v -1 2 -3
v -1 18 -3
v -1 20 -3
v 1 0 -3
v 1 2 -3
v 1 18 -3
v 1 20 -3
v 8 2 -3
v 8 9 -3
v 8 11 -3
v 8 18 -3
v 9 0 -3
v 9 1 -3
v 9 19 -3
v 9 20 -3
v 10 1 -3
v 10 9 -3
v 10 11 -3
v 10 19 -3
v -9 0 3
v -1 0 3
v 1 0 3
v 9 0 3
v -8 0 2
v -1 0 2
v 1 0 2
v 8 0 2
v -8 0 -2
v -1 0 -2
v 1 0 -2
v 8 0 -2
v -9 0 -3
v -1 0 -3
v 1 0 -3
v 9 0 -3
v -10 1 3
v -9 1 3
v 9 1 3
v 10 1 3
v -1 1 2
v 1 1 2
v -1 1 -2
v 1 1 -2
v -10 1 -3
v -9 1 -3
v 9 1 -3
v 10 1 -3
v -10 11 3
v -8 11 3
v 8 11 3
v 10 11 3
v -9 11 2
v -8 11 2
v 8 11 2
v 9 11 2
v -9 11 -2
v -8 11 -2
v 8 11 -2
v 9 11 -2
v -10 11 -3
v -8 11 -3
v 8 11 -3
v 10 11 -3
v -8 18 3
v -1 18 3
v 1 18 3
v 8 18 3
v -8 18 2
v -1 18 2
v 1 18 2
v 8 18 2
v -8 18 -2
v -1 18 -2
v 1 18 -2
v 8 18 -2
v -8 18 -3
v -1 18 -3
v 1 18 -3
v 8 18 -3
v -8 2 3
v -1 2 3
v 1 2 3
v 8 2 3
v -8 2 2
v -1 2 2
v 1 2 2
v 8 2 2
v -8 2 -2
v -1 2 -2
v 1 2 -2
v 8 2 -2
v -8 2 -3
v -1 2 -3
v 1 2 -3
v 8 2 -3
v -10 9 3
v -8 9 3
v 8 9 3
v 10 9 3
v -9 9 2
v -8 9 2
v 8 9 2
v 9 9 2
v -9 9 -2
v -8 9 -2
v 8 9 -2
v 9 9 -2
v -10 9 -3
v -8 9 -3
v 8 9 -3
v 10 9 -3
v -10 19 3
v -9 19 3
v 9 19 3
v 10 19 3
v -1 19 2
v 1 19 2
v -1 19 -2
v 1 19 -2
v -10 19 -3
v -9 19 -3
v 9 19 -3
v 10 19 -3
v -9 20 3
v -1 20 3
v 1 20 3
v 9 20 3
v -9 20 -3
v -1 20 -3
v 1 20 -3
v 9 20 -3

# faces
f 3/4/1 2/4/1 1/4/1
f 4/4/1 2/4/1 3/4/1
f 7/4/1 6/4/1 5/4/1
f 8/4/1 6/4/1 7/4/1
f 11/4/1 10/4/1 9/4/1
f 12/4/1 10/4/1 11/4/1
f 15/3/1 14/3/1 13/3/1
f 16/3/1 14/3/1 15/3/1
f 19/4/1 18/4/1 17/4/1
f 20/4/1 18/4/1 19/4/1
f 25/4/1 22/4/1 21/4/1
f 25/3/1 23/3/1 22/3/1
f 26/4/1 24/4/1 23/4/1
f 26/3/1 23/3/1 25/3/1
f 27/4/1 25/4/1 21/4/1
f 28/4/1 25/4/1 27/4/1
f 29/4/1 24/4/1 26/4/1
f 30/4/1 24/4/1 29/4/1
f 35/4/1 32/4/1 31/4/1
f 36/4/1 34/4/1 33/4/1
f 37/4/1 35/4/1 31/4/1
f 37/4/1 36/4/1 35/4/1
f 38/4/1 34/4/1 36/4/1
f 38/4/1 36/4/1 37/4/1
f 43/4/1 42/4/1 41/4/1
f 44/4/1 40/4/1 39/4/1
f 45/4/1 40/4/1 44/4/1
f 46/4/1 42/4/1 43/4/1
f 47/4/1 42/4/1 46/4/1
f 52/4/1 49/4/1 48/4/1
f 53/4/1 49/4/1 52/4/1
f 54/4/1 51/4/1 50/4/1
f 55/4/1 51/4/1 54/4/1
f 56/4/2 57/4/2 60/4/2
f 56/4/2 60/4/2 61/4/2
f 61/4/2 60/4/2 62/4/2
f 58/4/2 59/4/2 63/4/2
f 63/4/2 59/4/2 64/4/2
f 65/4/2 66/4/2 69/4/2
f 69/4/2 66/4/2 70/4/2
f 67/4/2 68/4/2 71/4/2
f 71/4/2 68/4/2 72/4/2
f 73/4/2 74/4/2 77/4/2
f 74/3/2 75/3/2 77/3/2
f 75/4/2 76/4/2 78/4/2
f 77/3/2 75/3/2 78/3/2
f 73/4/2 77/4/2 79/4/2
f 79/4/2 77/4/2 80/4/2
f 78/4/2 76/4/2 81/4/2
f 81/4/2 76/4/2 82/4/2
f 83/4/2 84/4/2 87/4/2
f 85/4/2 86/4/2 88/4/2
f 83/4/2 87/4/2 89/4/2
f 87/4/2 88/4/2 89/4/2
f 88/4/2 86/4/2 90/4/2
f 89/4/2 88/4/2 90/4/2
f 91/4/2 92/4/2 93/4/2
f 93/4/2 92/4/2 94/4/2
f 95/3/2 96/3/2 97/3/2
f 97/3/2 96/3/2 98/3/2
f 99/4/2 100/4/2 101/4/2
f 101/4/2 100/4/2 102/4/2
f 103/4/2 104/4/2 105/4/2
f 105/4/2 104/4/2 106/4/2
f 107/4/2 108/4/2 109/4/2
f 109/4/2 108/4/2 110/4/2
f 116/4/3 112/4/3 111/4/3
f 117/4/3 114/4/3 113/4/3
f 119/4/3 116/4/3 115/4/3
f 119/4/3 112/4/3 116/4/3
f 120/4/3 112/4/3 119/4/3
f 121/4/3 118/4/3 117/4/3
f 121/4/3 117/4/3 113/4/3
f 122/4/3 118/4/3 121/4/3
f 123/4/3 119/4/3 115/4/3
f 124/4/3 119/4/3 123/4/3
f 125/4/3 118/4/3 122/4/3
f 126/4/3 118/4/3 125/4/3
f 131/4/3 128/4/3 127/4/3
f 134/4/3 130/4/3 129/4/3
f 135/4/3 132/4/3 131/4/3
f 135/4/3 131/4/3 127/4/3
f 136/4/3 132/4/3 135/4/3
f 137/4/3 134/4/3 133/4/3
f 137/4/3 130/4/3 134/4/3
f 138/4/3 130/4/3 137/4/3
f 139/4/3 132/4/3 136/4/3
f 140/4/3 132/4/3 139/4/3
f 141/4/3 137/4/3 133/4/3
f 142/4/3 137/4/3 141/4/3
f 147/3/3 144/3/3 143/3/3
f 148/3/3 144/3/3 147/3/3
f 150/4/3 147/4/3 146/4/3
f 150/4/3 148/4/3 147/4/3
f 151/4/3 148/4/3 150/4/3
f 152/3/3 146/3/3 145/3/3
f 153/4/3 150/4/3 146/4/3
f 153/3/3 146/3/3 152/3/3
f 154/4/3 148/4/3 151/4/3
f 154/3/3 149/3/3 148/3/3
f 155/3/3 149/3/3 154/3/3
f 156/4/3 153/4/3 152/4/3
f 157/4/3 150/4/3 153/4/3
f 157/4/3 153/4/3 156/4/3
f 157/1/3 151/1/3 150/1/3
f 158/4/3 155/4/3 154/4/3
f 158/1/3 151/1/3 157/1/3
f 158/4/3 154/4/3 151/4/3
f 159/4/3 155/4/3 158/4/3
f 160/4/3 156/4/3 152/4/3
f 160/1/3 157/1/3 156/1/3
f 160/1/3 159/1/3 158/1/3
f 160/1/3 158/1/3 157/1/3
f 161/1/3 159/1/3 160/1/3
f 162/1/3 159/1/3 161/1/3
f 163/4/3 155/4/3 159/4/3
f 163/1/3 159/1/3 162/1/3
f 164/3/3 152/3/3 145/3/3
f 164/4/3 160/4/3 152/4/3
f 164/4/3 161/4/3 160/4/3
f 165/4/3 161/4/3 164/4/3
f 166/4/3 163/4/3 162/4/3
f 167/3/3 149/3/3 155/3/3
f 167/4/3 163/4/3 166/4/3
f 167/4/3 155/4/3 163/4/3
f 168/1/3 162/1/3 161/1/3
f 168/4/3 161/4/3 165/4/3
f 169/4/3 166/4/3 162/4/3
f 169/1/3 162/1/3 168/1/3
f 171/3/3 165/3/3 164/3/3
f 171/3/3 164/3/3 145/3/3
f 172/3/3 165/3/3 171/3/3
f 173/3/3 165/3/3 172/3/3
f 174/4/3 168/4/3 165/4/3
f 174/3/3 165/3/3 173/3/3
f 174/4/3 169/4/3 168/4/3
f 175/4/3 166/4/3 169/4/3
f 175/4/3 169/4/3 174/4/3
f 175/3/3 167/3/3 166/3/3
f 176/3/3 149/3/3 167/3/3
f 176/3/3 167/3/3 175/3/3
f 177/3/3 149/3/3 176/3/3
f 178/3/3 149/3/3 177/3/3
f 180/4/3 173/4/3 172/4/3
f 181/3/3 175/3/3 174/3/3
f 181/4/3 173/4/3 180/4/3
f 181/3/3 174/3/3 173/3/3
f 181/3/3 176/3/3 175/3/3
f 182/4/3 177/4/3 176/4/3
f 182/3/3 176/3/3 181/3/3
f 183/4/3 177/4/3 182/4/3
f 184/3/3 179/3/3 178/3/3
f 184/4/3 177/4/3 183/4/3
f 184/3/3 178/3/3 177/3/3
f 185/3/3 179/3/3 184/3/3
f 186/3/3 171/3/3 170/3/3
f 186/3/3 172/3/3 171/3/3
f 187/3/3 172/3/3 186/3/3
f 188/4/3 183/4/3 182/4/3
f 188/4/3 182/4/3 181/4/3
f 188/1/3 181/1/3 180/1/3
f 189/1/3 184/1/3 183/1/3
f 189/4/3 183/4/3 188/4/3
f 190/4/3 185/4/3 184/4/3
f 190/1/3 184/1/3 189/1/3
f 191/4/3 185/4/3 190/4/3
f 192/3/3 179/3/3 185/3/3
f 193/3/3 179/3/3 192/3/3
f 194/1/3 189/1/3 188/1/3
f 194/1/3 188/1/3 180/1/3
f 194/1/3 191/1/3 190/1/3
f 194/1/3 190/1/3 189/1/3
f 195/4/3 185/4/3 191/4/3
f 195/1/3 191/1/3 194/1/3
f 196/4/3 180/4/3 172/4/3
f 196/1/3 194/1/3 180/1/3
f 197/4/3 195/4/3 194/4/3
f 197/1/3 194/1/3 196/1/3
f 198/4/3 185/4/3 195/4/3
f 198/4/3 195/4/3 197/4/3
f 198/3/3 192/3/3 185/3/3
f 199/4/3 197/4/3 196/4/3
f 199/3/3 172/3/3 187/3/3
f 199/4/3 196/4/3 172/4/3
f 200/3/3 198/3/3 197/3/3
f 200/4/3 197/4/3 199/4/3
f 201/3/3 199/3/3 187/3/3
f 201/3/3 200/3/3 199/3/3
f 202/3/3 198/3/3 200/3/3
f 202/3/3 200/3/3 201/3/3
f 203/3/3 198/3/3 202/3/3
f 204/3/3 192/3/3 198/3/3
f 204/3/3 198/3/3 203/3/3
f 205/3/3 203/3/3 202/3/3
f 206/3/3 203/3/3 205/3/3
f 207/3/4 208/3/4 210/3/4
f 210/3/4 208/3/4 211/3/4
f 209/3/4 210/3/4 213/3/4
f 211/3/4 212/3/4 213/3/4
f 210/3/4 211/3/4 213/3/4
f 213/3/4 212/3/4 214/3/4
f 213/4/4 214/4/4 215/4/4
f 214/3/4 212/3/4 216/3/4
f 215/4/4 214/4/4 216/4/4
f 216/3/4 212/3/4 217/3/4
f 215/1/4 216/1/4 218/1/4
f 216/4/4 217/4/4 218/4/4
f 218/4/4 217/4/4 219/4/4
f 209/3/4 213/3/4 221/3/4
f 215/1/4 218/1/4 222/1/4
f 218/1/4 219/1/4 222/1/4
f 222/1/4 219/1/4 223/1/4
f 223/1/4 219/1/4 224/1/4
f 219/4/4 217/4/4 225/4/4
f 224/1/4 219/1/4 225/1/4
f 217/3/4 212/3/4 226/3/4
f 213/4/4 215/4/4 228/4/4
f 215/1/4 222/1/4 228/1/4
f 222/4/4 223/4/4 229/4/4
f 228/1/4 222/1/4 229/1/4
f 229/4/4 223/4/4 230/4/4
f 223/1/4 224/1/4 231/1/4
f 230/4/4 223/4/4 231/4/4
f 224/4/4 225/4/4 232/4/4
f 231/1/4 224/1/4 232/1/4
f 226/3/4 227/3/4 233/3/4
f 232/4/4 225/4/4 233/4/4
f 225/4/4 217/4/4 233/4/4
f 217/3/4 226/3/4 233/3/4
f 220/3/4 221/3/4 234/3/4
f 221/3/4 213/3/4 235/3/4
f 234/3/4 221/3/4 235/3/4
f 228/4/4 229/4/4 236/4/4
f 235/3/4 213/3/4 236/3/4
f 213/4/4 228/4/4 236/4/4
f 229/3/4 230/3/4 237/3/4
f 236/4/4 229/4/4 237/4/4
f 237/3/4 230/3/4 238/3/4
f 238/3/4 230/3/4 239/3/4
f 231/4/4 232/4/4 240/4/4
f 239/3/4 230/3/4 240/3/4
f 230/4/4 231/4/4 240/4/4
f 232/3/4 233/3/4 241/3/4
f 240/4/4 232/4/4 241/4/4
f 233/3/4 227/3/4 242/3/4
f 241/3/4 233/3/4 242/3/4
f 242/3/4 227/3/4 243/3/4
f 238/4/4 239/4/4 244/4/4
f 244/4/4 239/4/4 245/4/4
f 235/3/4 236/3/4 246/3/4
f 237/3/4 238/3/4 246/3/4
f 236/3/4 237/3/4 246/3/4
f 238/4/4 244/4/4 247/4/4
f 246/3/4 238/3/4 247/3/4
f 245/4/4 239/4/4 248/4/4
f 241/3/4 242/3/4 248/3/4
f 240/3/4 241/3/4 248/3/4
f 239/3/4 240/3/4 248/3/4
f 248/3/4 242/3/4 249/3/4
f 246/4/4 247/4/4 250/4/4
f 247/4/4 244/4/4 251/4/4
f 250/4/4 247/4/4 251/4/4
f 244/1/4 245/1/4 251/1/4
f 248/4/4 249/4/4 252/4/4
f 251/1/4 245/1/4 252/1/4
f 245/4/4 248/4/4 252/4/4
f 252/4/4 249/4/4 253/4/4
f 246/4/4 250/4/4 254/4/4
f 250/1/4 251/1/4 254/1/4
f 252/1/4 253/1/4 254/1/4
f 251/1/4 252/1/4 254/1/4
f 254/1/4 253/1/4 255/1/4
f 255/1/4 253/1/4 256/1/4
f 253/4/4 249/4/4 257/4/4
f 256/1/4 253/1/4 257/1/4
f 235/3/4 246/3/4 258/3/4
f 246/4/4 254/4/4 258/4/4
f 254/4/4 255/4/4 258/4/4
f 258/4/4 255/4/4 259/4/4
f 256/4/4 257/4/4 260/4/4
f 249/3/4 242/3/4 261/3/4
f 260/4/4 257/4/4 261/4/4
f 257/4/4 249/4/4 261/4/4
f 255/1/4 256/1/4 262/1/4
f 259/4/4 255/4/4 262/4/4
f 256/4/4 260/4/4 263/4/4
f 262/1/4 256/1/4 263/1/4
f 258/3/4 259/3/4 264/3/4
f 235/3/4 258/3/4 264/3/4
f 259/4/4 262/4/4 265/4/4
f 264/3/4 259/3/4 265/3/4
f 262/4/4 263/4/4 265/4/4
f 265/4/4 263/4/4 266/4/4
f 263/4/4 260/4/4 267/4/4
f 266/4/4 263/4/4 267/4/4
f 260/3/4 261/3/4 267/3/4
f 261/3/4 242/3/4 268/3/4
f 267/3/4 261/3/4 268/3/4
f 266/3/4 267/3/4 269/3/4
f 269/3/4 267/3/4 270/3/4
f 271/4/4 272/4/4 276/4/4
f 273/4/4 274/4/4 277/4/4
f 275/4/4 276/4/4 279/4/4
f 276/4/4 272/4/4 279/4/4
f 279/4/4 272/4/4 280/4/4
f 277/4/4 278/4/4 281/4/4
f 273/4/4 277/4/4 281/4/4
f 281/4/4 278/4/4 282/4/4
f 275/4/4 279/4/4 283/4/4
f 283/4/4 279/4/4 284/4/4
f 282/4/4 278/4/4 285/4/4
f 285/4/4 278/4/4 286/4/4
f 287/4/4 288/4/4 291/4/4
f 289/4/4 290/4/4 294/4/4
f 291/4/4 292/4/4 295/4/4
f 287/4/4 291/4/4 295/4/4
f 295/4/4 292/4/4 296/4/4
f 293/4/4 294/4/4 297/4/4
f 294/4/4 290/4/4 297/4/4
f 297/4/4 290/4/4 298/4/4
f 296/4/4 292/4/4 299/4/4
f 299/4/4 292/4/4 300/4/4
f 293/4/4 297/4/4 301/4/4
f 301/4/4 297/4/4 302/4/4
f 307/4/5 304/4/5 303/4/5
f 308/4/5 304/4/5 307/4/5
f 309/4/5 306/4/5 305/4/5
f 310/4/5 306/4/5 309/4/5
f 311/3/5 308/3/5 307/3/5
f 311/4/5 307/4/5 303/4/5
f 312/3/5 308/3/5 311/3/5
f 313/3/5 310/3/5 309/3/5
f 314/4/5 306/4/5 310/4/5
f 314/3/5 310/3/5 313/3/5
f 315/4/5 312/4/5 311/4/5
f 315/4/5 311/4/5 303/4/5
f 316/4/5 312/4/5 315/4/5
f 317/4/5 314/4/5 313/4/5
f 318/4/5 306/4/5 314/4/5
f 318/4/5 314/4/5 317/4/5
f 325/3/5 324/3/5 323/3/5
f 326/3/5 324/3/5 325/3/5
f 327/4/5 320/4/5 319/4/5
f 328/4/5 320/4/5 327/4/5
f 329/4/5 322/4/5 321/4/5
f 330/4/5 322/4/5 329/4/5
f 335/4/5 332/4/5 331/4/5
f 336/4/5 332/4/5 335/4/5
f 337/4/5 334/4/5 333/4/5
f 338/4/5 334/4/5 337/4/5
f 339/4/5 335/4/5 331/4/5
f 342/4/5 334/4/5 338/4/5
f 343/4/5 340/4/5 339/4/5
f 343/4/5 339/4/5 331/4/5
f 344/4/5 340/4/5 343/4/5
f 345/4/5 342/4/5 341/4/5
f 346/4/5 334/4/5 342/4/5
f 346/4/5 342/4/5 345/4/5
f 351/4/5 348/4/5 347/4/5
f 352/4/5 348/4/5 351/4/5
f 353/4/5 350/4/5 349/4/5
f 354/4/5 350/4/5 353/4/5
f 359/4/5 356/4/5 355/4/5
f 360/4/5 356/4/5 359/4/5
f 361/4/5 358/4/5 357/4/5
f 362/4/5 358/4/5 361/4/5
f 363/4/6 364/4/6 367/4/6
f 367/4/6 364/4/6 368/4/6
f 365/4/6 366/4/6 369/4/6
f 369/4/6 366/4/6 370/4/6
f 371/4/6 372/4/6 375/4/6
f 375/4/6 372/4/6 376/4/6
f 373/4/6 374/4/6 377/4/6
f 377/4/6 374/4/6 378/4/6
f 379/4/6 380/4/6 383/4/6
f 383/4/6 380/4/6 384/4/6
f 381/4/6 382/4/6 385/4/6
f 385/4/6 382/4/6 386/4/6
f 379/4/6 383/4/6 387/4/6
f 386/4/6 382/4/6 390/4/6
f 387/4/6 388/4/6 391/4/6
f 379/4/6 387/4/6 391/4/6
f 391/4/6 388/4/6 392/4/6
f 389/4/6 390/4/6 393/4/6
f 390/4/6 382/4/6 394/4/6
f 393/4/6 390/4/6 394/4/6
f 399/3/6 400/3/6 401/3/6
f 401/3/6 400/3/6 402/3/6
f 395/4/6 396/4/6 403/4/6
f 403/4/6 396/4/6 404/4/6
f 397/4/6 398/4/6 405/4/6
f 405/4/6 398/4/6 406/4/6
f 407/4/6 408/4/6 411/4/6
f 411/4/6 408/4/6 412/4/6
f 409/4/6 410/4/6 413/4/6
f 413/4/6 410/4/6 414/4/6
